<svg width="32" height="32" viewBox="0 0 32 32" fill="none" xmlns="http://www.w3.org/2000/svg">
<path d="M5.54515 6.32094C5.54515 5.07077 5.91588 3.84869 6.61045 2.80921C7.30501 1.76974 8.29223 0.959572 9.44725 0.481155C10.6023 0.00273874 11.8732 -0.122437 13.0994 0.121458C14.3256 0.365352 15.4519 0.967363 16.3359 1.85136C17.2199 2.73536 17.8219 3.86164 18.0658 5.08778C18.3097 6.31393 18.1845 7.58485 17.7061 8.73985C17.2277 9.89485 16.4175 10.882 15.378 11.5766C14.3385 12.2712 13.1164 12.6419 11.8662 12.6419C10.1898 12.6419 8.58198 11.9759 7.39655 10.7905C6.21112 9.60511 5.54515 7.99735 5.54515 6.32094ZM14.6175 23.4349C14.6419 22.1954 14.9162 20.9737 15.4239 19.8427C15.9317 18.7118 16.6625 17.695 17.5726 16.8532C17.6371 16.7946 17.6842 16.7193 17.7087 16.6357C17.7333 16.5521 17.7343 16.4633 17.7116 16.3791C17.6898 16.2921 17.6425 16.2136 17.5758 16.1536C17.5091 16.0936 17.426 16.055 17.3371 16.0425C16.573 15.8798 15.7937 15.7992 15.0125 15.8023H8.69146C2.27558 15.8023 0 20.4956 0 24.5252C0 28.1282 1.91212 30.0244 5.53093 30.0244H16.4506C16.5434 30.0231 16.6337 29.9946 16.7105 29.9425C16.7872 29.8903 16.8469 29.8167 16.8823 29.7309C16.9176 29.6451 16.927 29.5508 16.9092 29.4597C16.8915 29.3687 16.8474 29.2848 16.7824 29.2185C15.3798 27.6191 14.6098 25.5622 14.6175 23.4349ZM31.6527 31.6521C31.5429 31.7624 31.4124 31.8499 31.2687 31.9096C31.1249 31.9693 30.9708 32 30.8152 32C30.6596 32 30.5054 31.9693 30.3617 31.9096C30.218 31.8499 30.0875 31.7624 29.9776 31.6521L27.0826 28.7603C25.7506 29.6738 24.1254 30.057 22.5256 29.8346C20.9258 29.6121 19.4667 28.8002 18.4345 27.5579C17.4022 26.3156 16.8712 24.7325 16.9456 23.1191C17.0199 21.5056 17.6943 19.9781 18.8364 18.836C19.9785 17.6939 21.5061 17.0196 23.1196 16.9452C24.7331 16.8709 26.3161 17.4019 27.5585 18.4341C28.8008 19.4663 29.6127 20.9253 29.8352 22.5251C30.0576 24.1249 29.6745 25.7501 28.7608 27.082L31.6527 29.977C31.7628 30.087 31.8502 30.2175 31.9097 30.3612C31.9693 30.5049 32 30.659 32 30.8146C32 30.9701 31.9693 31.1242 31.9097 31.2679C31.8502 31.4116 31.7628 31.5422 31.6527 31.6521ZM27.5235 23.4349C27.5235 22.6273 27.284 21.8378 26.8353 21.1663C26.3866 20.4948 25.7489 19.9714 25.0027 19.6624C24.2566 19.3533 23.4356 19.2724 22.6435 19.43C21.8513 19.5876 21.1238 19.9765 20.5527 20.5475C19.9816 21.1186 19.5927 21.8462 19.4351 22.6382C19.2776 23.4303 19.3584 24.2514 19.6675 24.9975C19.9766 25.7436 20.5 26.3813 21.1715 26.83C21.843 27.2787 22.6325 27.5182 23.4401 27.5182C24.522 27.5174 25.5594 27.0875 26.3249 26.323C27.0904 25.5584 27.5214 24.5215 27.5235 23.4396V23.4349Z" fill="#C9E4F3"/>
</svg>
