<svg width="32" height="32" viewBox="0 0 32 32" fill="none" xmlns="http://www.w3.org/2000/svg">
<path d="M12.1227 13.2804C13.436 13.2804 14.7198 12.891 15.8118 12.1613C16.9038 11.4317 17.7548 10.3946 18.2574 9.18131C18.76 7.96797 18.8915 6.63284 18.6353 5.34477C18.3791 4.0567 17.7467 2.87352 16.818 1.94487C15.8894 1.01622 14.7062 0.383807 13.4181 0.127593C12.13 -0.128621 10.7949 0.00287709 9.58158 0.505459C8.36824 1.00804 7.33118 1.85913 6.60154 2.95111C5.87191 4.04308 5.48247 5.3269 5.48247 6.64021C5.48453 8.40067 6.18479 10.0884 7.42962 11.3333C8.67445 12.5781 10.3622 13.2783 12.1227 13.2804ZM12.1227 2.3436C12.9725 2.3436 13.8032 2.5956 14.5097 3.06771C15.2163 3.53983 15.767 4.21087 16.0922 4.99597C16.4174 5.78107 16.5025 6.64498 16.3367 7.47844C16.1709 8.31189 15.7617 9.07748 15.1608 9.67837C14.5599 10.2793 13.7944 10.6885 12.9609 10.8543C12.1274 11.02 11.2635 10.935 10.4784 10.6098C9.69333 10.2846 9.02229 9.73385 8.55018 9.02727C8.07806 8.3207 7.82607 7.49 7.82607 6.64021C7.82731 5.50106 8.28038 4.40892 9.08589 3.60342C9.89139 2.79792 10.9835 2.34485 12.1227 2.3436ZM16.6099 18.0614C16.1542 17.9942 15.694 17.9628 15.2334 17.9676H8.98381C8.09158 17.8989 7.19505 18.0245 6.3561 18.3359C5.51715 18.6473 4.75576 19.1371 4.12447 19.7713C3.49318 20.4056 3.00703 21.1693 2.69957 22.0097C2.39211 22.8501 2.27066 23.7472 2.3436 24.6391C2.3436 27.0811 3.3951 28.1232 5.85901 28.1232H13.671C13.9818 28.1232 14.2798 28.2467 14.4996 28.4664C14.7194 28.6862 14.8428 28.9842 14.8428 29.295C14.8428 29.6058 14.7194 29.9039 14.4996 30.1236C14.2798 30.3434 13.9818 30.4668 13.671 30.4668H5.85901C2.08112 30.4668 0 28.3966 0 24.6391C0 20.48 2.35298 15.624 8.98381 15.624H15.2334C15.8186 15.6185 16.4033 15.6603 16.9817 15.749C17.138 15.7684 17.2888 15.819 17.425 15.8979C17.5613 15.9768 17.6802 16.0824 17.7748 16.2083C17.8693 16.3342 17.9375 16.4779 17.9753 16.6308C18.0131 16.7836 18.0197 16.9425 17.9947 17.098C17.9697 17.2534 17.9136 17.4023 17.8298 17.5356C17.746 17.6689 17.6362 17.7839 17.5069 17.8739C17.3777 17.9638 17.2316 18.0267 17.0775 18.0589C16.9234 18.0912 16.7643 18.092 16.6099 18.0614ZM31.6855 30.0294L28.8263 27.167C29.7296 25.8501 30.1084 24.2433 29.8885 22.6615C29.6686 21.0798 28.8658 19.6373 27.6375 18.6167C26.4092 17.5961 24.8441 17.0711 23.2488 17.1446C21.6535 17.2181 20.1433 17.8849 19.0141 19.0141C17.8849 20.1433 17.2181 21.6535 17.1446 23.2488C17.0711 24.8441 17.5961 26.4092 18.6167 27.6375C19.6373 28.8658 21.0798 29.6686 22.6615 29.8885C24.2433 30.1084 25.8501 29.7296 27.167 28.8263L30.0294 31.6855C30.2515 31.8925 30.5453 32.0052 30.8489 31.9998C31.1524 31.9945 31.4421 31.8715 31.6568 31.6568C31.8715 31.4421 31.9945 31.1524 31.9998 30.8489C32.0052 30.5453 31.8925 30.2515 31.6855 30.0294ZM19.53 23.5657C19.53 22.7671 19.7668 21.9865 20.2105 21.3226C20.6542 20.6586 21.2848 20.1411 22.0226 19.8356C22.7604 19.5301 23.5723 19.4502 24.3555 19.6061C25.1387 19.7621 25.858 20.1467 26.4226 20.7115C26.9871 21.2763 27.3715 21.9958 27.5271 22.779C27.6827 23.5623 27.6026 24.3741 27.2967 25.1118C26.9909 25.8495 26.4732 26.4799 25.8091 26.9233C25.145 27.3667 24.3643 27.6033 23.5657 27.6029C22.4955 27.6017 21.4695 27.1759 20.7129 26.419C19.9562 25.6621 19.5308 24.6359 19.53 23.5657Z" fill="#C9E4F3"/>
</svg>
